<?xml version="1.0" encoding="UTF-8" standalone="no"?>
<!DOCTYPE svg PUBLIC "-//W3C//DTD SVG 1.1//EN" "http://www.w3.org/Graphics/SVG/1.1/DTD/svg11.dtd">
<svg width="100%" height="100%" viewBox="0 0 637 1024" version="1.1" xmlns="http://www.w3.org/2000/svg" xmlns:xlink="http://www.w3.org/1999/xlink" xml:space="preserve" xmlns:serif="http://www.serif.com/" style="fill-rule:evenodd;clip-rule:evenodd;stroke-linecap:round;stroke-linejoin:round;stroke-miterlimit:1.5;">
    <path d="M538.153,160.319L537.367,551.687C537.367,551.687 523.221,548.543 526.365,560.332C529.508,572.12 534.224,571.334 527.937,578.407C521.65,585.48 513.791,592.553 523.221,600.411C532.652,608.27 527.151,605.913 532.652,623.988C538.153,642.063 543.654,643.635 536.581,654.637C529.508,665.639 534.224,655.423 524.793,675.07C515.363,694.717 484.713,710.434 483.142,733.225C481.57,756.015 468.996,778.806 471.353,793.738C473.711,808.669 468.21,810.241 459.565,818.886C450.921,827.53 456.422,829.102 462.709,840.104C468.996,851.107 446.991,857.394 434.417,858.965C421.843,860.537 429.36,853.44 418.7,866.038C410.055,876.255 406.125,878.612 413.984,888.043C421.843,897.474 432.059,903.761 424.987,910.048C417.914,916.335 392.766,904.546 381.763,899.831C370.761,895.116 358.973,882.542 348.756,894.33C338.54,906.118 322.822,913.977 329.109,921.836C335.396,929.695 328.323,929.695 318.107,922.622C307.891,915.549 295.317,902.975 296.102,894.33C296.888,885.685 296.888,889.615 302.389,873.111C307.891,856.608 308.677,858.965 303.175,841.676C297.674,824.387 303.961,801.596 303.961,801.596C303.961,801.596 295.317,803.954 278.027,795.309C260.738,786.665 266.239,791.38 245.02,775.662C223.802,759.945 196.296,744.227 194.724,732.439C193.152,720.651 185.294,709.649 198.653,697.86C212.013,686.072 228.517,660.138 228.517,660.138C228.517,660.138 210.442,620.058 198.653,617.701C186.865,615.343 171.148,608.27 161.717,609.056C152.287,609.842 142.07,599.625 138.927,583.122C135.783,566.619 140.498,550.901 122.423,542.256C104.348,533.612 105.92,521.038 94.917,507.678C83.915,494.318 74.485,493.532 66.626,477.028C58.767,460.525 53.266,455.81 54.838,433.805C56.409,411.8 54.052,401.584 51.694,389.796C49.337,378.008 44.621,373.292 54.052,363.862C63.482,354.431 52.48,348.93 72.913,337.928C93.346,326.926 98.061,336.356 101.99,311.994C105.92,287.632 111.421,287.632 106.706,267.199C101.99,246.766 90.988,238.907 90.988,226.333C90.988,213.759 94.132,209.83 109.063,204.328C123.995,198.827 117.708,208.258 144.428,196.47C171.148,184.682 172.719,179.966 178.221,167.392C183.722,154.818 206.512,133.599 204.941,119.454C203.369,105.308 198.653,106.094 186.865,92.734C175.077,79.374 168.79,75.444 169.576,66.014C170.362,56.583 168.79,61.299 151.501,49.51C134.211,37.722 135.783,25.934 135.783,25.934L504.36,29.078C504.36,29.078 493.358,62.084 502.789,72.301C512.219,82.517 507.504,86.447 513.005,102.95C518.506,119.454 520.864,136.743 526.365,144.602C531.866,152.46 538.153,160.319 538.153,160.319Z" style="stroke:black;stroke-width:9.91px;"/>
</svg>
