<?xml version="1.0" encoding="UTF-8" standalone="no"?>
<!-- Created with Inkscape (http://www.inkscape.org/) -->

<svg
   xmlns:dc="http://purl.org/dc/elements/1.1/"
   xmlns:cc="http://creativecommons.org/ns#"
   xmlns:rdf="http://www.w3.org/1999/02/22-rdf-syntax-ns#"
   xmlns:svg="http://www.w3.org/2000/svg"
   xmlns="http://www.w3.org/2000/svg"
   xmlns:sodipodi="http://sodipodi.sourceforge.net/DTD/sodipodi-0.dtd"
   xmlns:inkscape="http://www.inkscape.org/namespaces/inkscape"
   width="1052.3622"
   height="744.09448"
   id="svg3770"
   version="1.1"
   inkscape:version="0.48.5 r10040"
   sodipodi:docname="New document 3">
  <title
     id="title4295">Outline of Tennessee</title>
  <defs
     id="defs3772" />
  <sodipodi:namedview
     id="base"
     pagecolor="#ffffff"
     bordercolor="#379bff"
     borderopacity="1"
     inkscape:pageopacity="0.0"
     inkscape:pageshadow="2"
     inkscape:zoom="0.49497475"
     inkscape:cx="379.19128"
     inkscape:cy="297.64404"
     inkscape:document-units="px"
     inkscape:current-layer="layer1"
     showgrid="false"
     inkscape:window-width="1280"
     inkscape:window-height="657"
     inkscape:window-x="-8"
     inkscape:window-y="-8"
     inkscape:window-maximized="1" />
  <metadata
     id="metadata3775">
    <rdf:RDF>
      <cc:Work
         rdf:about="">
        <dc:format>image/svg+xml</dc:format>
        <dc:type
           rdf:resource="http://purl.org/dc/dcmitype/StillImage" />
        <dc:title>Outline of Tennessee</dc:title>
      </cc:Work>
    </rdf:RDF>
  </metadata>
  <g
     inkscape:label="Layer 1"
     inkscape:groupmode="layer"
     id="layer1"
     transform="translate(0,-308.2677)">
    <path
       id="path7041"
       sodipodi:nodetypes="csssssssssssssssssssssssssssscccsssssscssssscsssssscscsssssssssssscsscscc"
       style="fill:none;stroke:#000000;stroke-width:5.56308651;stroke-miterlimit:4;stroke-dasharray:none"
       inkscape:connector-curvature="0"
       d="m 260.05717,798.9248 c -11.72881,-0.72695 -63.4655,-1.91872 -114.97041,-2.64841 -83.01794,-1.17613 -113.485054,-2.59683 -116.312999,-5.42383 -1.714188,-1.71412 1.670798,-8.54789 4.23407,-8.54789 1.453115,0 4.108887,-3.09546 5.901674,-6.87874 2.088704,-4.40763 4.921491,-7.26801 7.885915,-7.96227 6.314069,-1.47903 6.700142,-6.00367 1.034214,-12.11732 -5.57441,-6.01498 -5.590692,-6.10775 -1.800837,-10.29543 2.688468,-2.97068 2.611321,-3.56127 -0.92716,-7.09977 -2.122918,-2.1229 -3.859698,-4.54399 -3.859698,-5.38005 0,-0.83632 3.638285,-4.80007 8.084998,-8.80825 4.44678,-4.0082 8.65958,-9.11532 9.361621,-11.34926 0.888417,-2.82659 3.024895,-4.23609 7.02653,-4.6359 7.908703,-0.79005 10.751791,-5.65951 6.22475,-10.66184 -5.551818,-6.13461 -1.798638,-11.45941 11.209042,-15.90244 8.925169,-3.04858 10.834658,-4.416 10.358087,-7.41746 -1.557971,-9.81219 -1.237683,-11.10189 2.90229,-11.6899 4.839893,-0.68738 4.941833,-1.00713 1.883311,-5.90467 -1.923376,-3.07991 -1.563154,-4.99434 2.254682,-11.98344 2.49915,-4.57489 5.61541,-8.72922 6.92486,-9.23175 3.64646,-1.39928 2.89645,-3.79513 -3.2477,-10.37218 -6.913438,-7.40076 -6.309813,-9.95738 2.52693,-10.70414 7.33518,-0.61985 8.43891,-2.25491 4.00621,-5.93375 -3.1667,-2.62821 -0.61432,-7.39855 3.95871,-7.39855 1.72681,0 2.55458,-2.31015 2.55458,-7.13002 0,-8.58514 5.15697,-14.29158 11.4323,-12.65065 2.27535,0.595 5.01477,0.42157 6.08767,-0.38536 1.07295,-0.80692 25.31578,-0.75434 53.87296,0.11689 28.55716,0.8712 62.77009,1.35772 76.02875,1.08116 l 24.10677,-0.50283 -0.63492,-10.66258 -0.63492,-10.66258 h 13.85205 c 10.05063,0 14.48551,0.76332 16.16035,2.78153 2.03727,2.45463 43.69249,2.78156 354.40571,2.78156 215.43988,0 352.10634,0.66831 352.10634,1.72189 0,0.94706 -1.2582,2.98034 -2.7965,4.51816 -1.8942,1.89442 -3.0381,7.76867 -3.5459,18.21243 -0.4124,8.47888 -0.823,16.04209 -0.9126,16.80702 -0.089,0.76491 -4.1953,1.39078 -9.1242,1.39078 -8.13192,0 -9.48074,0.6462 -14.57132,6.98074 -3.08547,3.83945 -6.15942,8.63762 -6.83128,10.66258 -0.67186,2.02496 -2.75379,5.66841 -4.6267,8.09651 -3.05981,3.96686 -5.16741,4.49683 -20.77251,5.22393 l -17.36635,0.80915 -10.73194,11.00174 c -10.91099,11.18552 -12.14803,11.80858 -19.52081,9.83295 -2.88128,-0.77218 -4.17225,-2.51803 -4.17225,-5.64282 0,-4.22537 -0.25772,-4.3444 -3.89188,-1.7989 -4.20825,2.94769 -9.08874,11.17029 -9.08874,15.31277 0,2.94157 -6.61806,3.50882 -8.34463,0.71519 -2.02422,-3.27535 -4.63456,-1.98157 -4.6771,2.31796 -0.0222,2.29478 -1.67303,6.25848 -3.66754,8.80822 -1.99437,2.54975 -3.64476,5.67899 -3.66753,6.95386 -0.0275,1.56012 -3.28194,2.31796 -9.95275,2.31796 -7.55654,0 -10.70916,0.8812 -13.26793,3.70873 -1.84607,2.03979 -4.92225,3.70871 -6.83599,3.70871 -1.91375,0 -3.95733,1.24536 -4.54149,2.76745 -0.58404,1.52208 -6.80432,6.58502 -13.82304,11.2508 -12.44738,8.2749 -13.07761,8.47053 -25.6551,7.95706 -12.67971,-0.51767 -13.00235,-0.41396 -19.48193,6.25809 -5.20249,5.35691 -8.24332,6.90471 -14.45052,7.35551 -6.93076,0.50335 -8.05641,1.2297 -9.50497,6.13404 -0.90393,3.05973 -2.3199,6.91643 -3.14673,8.57035 -0.82683,1.65392 -0.72317,3.78733 0.23037,4.74081 3.51112,3.5111 -8.00563,11.55085 -18.74581,13.08589 l -10.1428,1.44986 -0.44503,7.4017 c -0.24489,4.07087 -1.42133,11.78263 -2.61413,17.13709 l -2.16911,9.7354 -219.90874,-0.30089 c -120.95074,-0.16539 -229.51441,-0.8956 -241.23398,-1.62255 z" />
  </g>
</svg>
